<svg width="31" height="30" viewBox="0 0 31 30" fill="none" xmlns="http://www.w3.org/2000/svg">
<path d="M19.6561 19.5H4.34298C4.15863 19.5 3.98063 19.4326 3.8425 19.3106C3.70436 19.1885 3.61562 19.0201 3.59298 18.8372L2.25704 7.58717C2.24468 7.48162 2.2549 7.37464 2.28702 7.27333C2.31914 7.17201 2.37242 7.07869 2.44333 6.99953C2.51425 6.92037 2.60118 6.85718 2.69836 6.81416C2.79555 6.77114 2.90076 6.74927 3.00704 6.74999H20.992C21.0983 6.74927 21.2035 6.77114 21.3007 6.81416C21.3979 6.85718 21.4848 6.92037 21.5557 6.99953C21.6267 7.07869 21.6799 7.17201 21.7121 7.27333C21.7442 7.37464 21.7544 7.48162 21.742 7.58717L20.4061 18.8372C20.3835 19.0201 20.2947 19.1885 20.1566 19.3106C20.0184 19.4326 19.8405 19.5 19.6561 19.5Z" stroke="#161616" stroke-width="1.5" stroke-linecap="round" stroke-linejoin="round"/>
<path d="M8.25 9.75V6C8.25 5.00544 8.64509 4.05161 9.34835 3.34835C10.0516 2.64509 11.0054 2.25 12 2.25C12.9946 2.25 13.9484 2.64509 14.6517 3.34835C15.3549 4.05161 15.75 5.00544 15.75 6V9.75" stroke="#161616" stroke-width="1.5" stroke-linecap="round" stroke-linejoin="round"/>
</svg>