<svg width="120" height="28" viewBox="0 0 120 28" fill="none" xmlns="http://www.w3.org/2000/svg">
<g clip-path="url(#clip0_4_2212)">
<path fill-rule="evenodd" clip-rule="evenodd" d="M51.1461 0.599339C50.4761 0.86366 49.8397 0.995539 48.9488 1.05473C48.5679 1.08004 48.1985 1.12939 48.128 1.16425C48.0063 1.22457 48.0007 1.86836 48.0186 13.8735L48.0374 26.5193L48.1899 26.7178C48.2737 26.8269 48.4728 26.9607 48.6322 27.015C48.8958 27.1049 48.9684 27.1002 49.4277 26.963C49.7058 26.8799 50.5648 26.7114 51.3368 26.5884L52.7403 26.3648V23.3263V20.2877L53.9616 19.1933C54.9011 18.3512 55.202 18.1184 55.266 18.1841C55.3117 18.2311 56.2436 19.614 57.3368 21.2572C59.9965 25.2549 60.638 26.1949 60.7857 26.3111C60.8629 26.3717 61.2988 26.4443 61.9353 26.5024C63.1613 26.6141 63.6388 26.6935 64.4519 26.9206C65.4095 27.1882 65.7094 27.1399 66.0524 26.6628L66.2451 26.3947L66.0684 26.093C65.6085 25.3081 59.7732 16.488 59.5994 16.315C59.4139 16.1304 59.3475 16.1141 58.542 16.0555C58.0694 16.0211 57.6674 15.9783 57.6488 15.9604C57.6302 15.9425 58.9637 14.699 60.6121 13.1971L63.6093 10.4665L61.62 10.4461C60.5259 10.4348 59.5211 10.4447 59.3872 10.468C59.0975 10.5183 58.5005 11.0222 58.5005 11.2163C58.5005 11.3843 58.6938 11.7529 59.239 12.6245C59.4771 13.005 59.6472 13.3521 59.6241 13.4101C59.6014 13.4673 58.9902 14.0384 58.2658 14.6792C57.1462 15.6697 56.915 15.844 56.7222 15.8423C56.5975 15.8412 55.9434 15.7205 55.2689 15.574C54.5943 15.4275 53.943 15.3217 53.8216 15.339C53.6195 15.3675 53.6045 15.3881 53.6446 15.5815C53.6688 15.6977 53.9541 16.2005 54.2788 16.6989C54.6034 17.1974 54.8533 17.6447 54.8341 17.693C54.8149 17.7413 54.3363 18.2025 53.7705 18.7179L52.742 19.655L52.7229 10.4475L52.7039 1.24004L52.5137 0.982394C52.3141 0.711887 51.8911 0.375581 51.7601 0.383102C51.7177 0.385563 51.4415 0.482855 51.1461 0.599339ZM3.26838 2.03328C3.10797 2.08664 2.38613 2.22702 1.66428 2.3454C0.942436 2.46372 0.278046 2.57633 0.187779 2.59574L0.0237232 2.63088L0.0253273 4.43972C0.0267856 6.06452 0.0410038 6.27851 0.165395 6.54269C0.376771 6.99155 0.915239 7.18107 1.43635 6.99007C1.53676 6.95323 2.25255 6.81067 3.02697 6.67324C3.80138 6.5358 4.50887 6.40716 4.59906 6.38733L4.76312 6.35134L4.76151 4.5425C4.76005 2.90252 4.74664 2.70554 4.61802 2.43222C4.39723 1.96326 3.91119 1.81957 3.26838 2.03328ZM17.8588 10.1571C16.6976 10.2751 15.5513 10.6601 14.6654 11.2295C14.4525 11.3664 13.9831 11.7326 13.6221 12.0433L12.9659 12.6084L12.9262 11.8811C12.8824 11.0769 12.7958 10.8736 12.3969 10.6391C12.0882 10.4576 11.7954 10.466 11.0808 10.6769C10.6238 10.8117 8.57928 11.1343 8.1816 11.1343C8.14471 11.1343 8.11729 14.3856 8.11744 18.7441C8.11766 26.1628 8.12123 26.3594 8.25977 26.5785C8.59597 27.1102 8.96645 27.1717 10.1223 26.8884C10.9435 26.687 11.5122 26.5926 12.5102 26.4915L12.9295 26.4491V19.9234V13.3977L13.2657 12.9665C13.7074 12.4001 14.2891 11.949 15.0075 11.6161C16.0825 11.1179 16.976 11.0908 17.8843 11.5289C18.1607 11.6622 18.4878 11.8823 18.6113 12.0178C19.0439 12.4928 19.3817 13.3211 19.6434 14.548C19.8215 15.3833 19.9159 18.3019 19.9241 23.2282C19.9291 26.2577 19.9308 26.2921 20.0932 26.6025C20.2245 26.8536 20.3183 26.9366 20.5634 27.0182C20.8458 27.1124 20.9135 27.108 21.4383 26.9618C21.7512 26.8747 22.5978 26.7178 23.3197 26.6133L24.6321 26.4232L24.6541 22.4519C24.6773 18.2566 24.6175 16.7545 24.3713 15.3522C24.1571 14.1325 23.9652 13.4841 23.6121 12.7863C22.7959 11.1736 21.5305 10.3501 19.5646 10.152C18.789 10.0739 18.6732 10.0743 17.8588 10.1571ZM94.7022 10.151C93.075 10.3171 91.7029 10.9589 90.4206 12.1536L89.817 12.716L89.7784 11.8924C89.7462 11.207 89.7145 11.0359 89.5891 10.8731C89.3 10.4977 88.8563 10.4087 88.2858 10.6114C88.1254 10.6684 87.3707 10.8103 86.6088 10.9268C85.8468 11.0432 85.1824 11.1523 85.1323 11.1693C85.0081 11.2113 84.9984 25.8819 85.1223 26.3562C85.2926 27.0084 85.7696 27.2094 86.5663 26.9645C86.8303 26.8833 87.6615 26.7293 88.4134 26.6221L89.7805 26.4274L89.7838 20.0287C89.7863 15.1976 89.8086 13.5823 89.8749 13.4358C89.9233 13.329 90.1269 13.058 90.3274 12.8336C91.3417 11.6983 92.6277 11.1073 93.8046 11.2357C95.1866 11.3864 95.9091 12.1107 96.3762 13.814C96.7667 15.2384 96.7939 15.6798 96.8326 21.2572C96.8719 26.921 96.8519 26.6835 97.3124 26.9542C97.6095 27.1289 97.8887 27.1279 98.4241 26.9503C98.6589 26.8723 99.4516 26.7241 100.185 26.6207L101.52 26.433V21.663C101.52 18.7205 101.49 16.6317 101.441 16.2106C101.273 14.7544 100.865 13.3255 100.373 12.4699C100.025 11.8643 99.1321 11.0047 98.5666 10.7301C97.9069 10.4099 97.2214 10.2302 96.3568 10.1512C95.5102 10.0738 95.4585 10.0738 94.7022 10.151ZM73.4479 10.195C73.3476 10.2092 73.0201 10.2558 72.72 10.2986C70.0394 10.681 68.0825 12.0038 66.9297 14.2126C65.8714 16.2401 65.5898 18.9044 66.1665 21.433C66.8266 24.3271 68.5117 26.2101 71.2243 27.0845C73.3108 27.757 76.0191 27.6344 77.9361 26.7805C81.2079 25.323 82.904 21.4863 82.2111 17.1096C81.8719 14.9672 81.1994 13.5361 79.9789 12.3594C78.8008 11.2236 77.077 10.4371 75.3071 10.2281C74.6824 10.1543 73.8417 10.1393 73.4479 10.195ZM110.524 10.2567C109.124 10.4753 107.786 10.9632 106.89 11.5821C105.931 12.2446 105.024 13.3168 104.511 14.3944C103.874 15.7316 103.637 16.7498 103.586 18.375C103.494 21.2886 104.24 23.5988 105.781 25.1756C106.897 26.3183 108.144 26.9737 109.92 27.3503C110.399 27.4519 110.819 27.4772 111.946 27.4718C113.25 27.4654 113.428 27.4491 114.097 27.2749C117.305 26.4387 119.028 24.5762 119.837 21.0684C119.972 20.4862 119.997 20.1535 120 18.9374C120.004 17.3452 119.885 16.547 119.459 15.2882C118.552 12.6135 116.55 10.9207 113.587 10.3246C112.777 10.1616 111.338 10.1297 110.524 10.2567ZM3.38009 10.5425C2.91089 10.7388 2.05357 10.9202 1.23686 10.996C0.143448 11.0975 0.121646 11.1036 0.0435557 11.3272C0.00279696 11.4439 -0.0109108 14.4931 0.00906755 18.9978L0.0422433 26.4747L0.258505 26.7121C0.593909 27.0805 0.929603 27.1455 1.57263 26.9669C2.32991 26.7564 3.1647 26.6055 3.95108 26.5367C4.39388 26.498 4.6563 26.443 4.69786 26.3803C4.73402 26.3257 4.75429 22.9816 4.7443 18.714C4.72666 11.1569 4.72644 11.1443 4.57412 10.9461C4.37536 10.6875 3.98002 10.4306 3.78622 10.434C3.70193 10.4356 3.51921 10.4844 3.38009 10.5425ZM29.6531 10.5367C29.5622 10.7651 29.6855 10.8329 30.3383 10.9137C32.151 11.1378 33.3785 11.916 34.4564 13.5244C34.8363 14.0914 35.8244 15.7821 35.8244 15.8653C35.8244 15.9251 32.7343 17.0563 30.7933 17.7071C29.7023 18.0728 29.2092 18.332 28.5933 18.8633C27.3901 19.9012 26.6372 21.3232 26.6372 22.5577C26.6372 24.3049 27.9689 26.1365 29.8819 27.0203C31.0044 27.539 31.3723 27.6182 32.6526 27.617C33.8744 27.6158 34.2549 27.5432 35.314 27.1093C36.6493 26.5623 37.8253 25.7463 38.9402 24.5935L39.586 23.9257L40.1591 25.1398C40.4744 25.8075 40.809 26.4716 40.9028 26.6155C41.1999 27.071 41.6642 27.1961 42.2772 26.9856C42.4376 26.9305 43.3153 26.7667 44.2277 26.6215C45.14 26.4764 45.8865 26.3353 45.8865 26.3081C45.8865 26.2808 44.6114 23.5594 43.053 20.2605C41.4946 16.9616 39.85 13.4717 39.3983 12.5051C38.9466 11.5385 38.5098 10.6765 38.4275 10.5895L38.278 10.4313H33.9865C30.2391 10.4313 29.6897 10.4447 29.6531 10.5367ZM75.2702 10.7322C75.8089 10.9256 76.4087 11.5067 76.7213 12.1381C77.4604 13.6313 77.7294 16.394 77.5373 20.5191C77.408 23.2952 77.3093 23.9789 76.8682 25.1542C76.3349 26.5753 75.4803 27.1419 73.9665 27.078C72.7607 27.0271 72.1456 26.6156 71.5611 25.4689C71.0399 24.4468 70.9411 23.893 70.6843 20.5542C70.5726 19.1028 70.5586 18.5209 70.611 17.4963C70.7476 14.8232 71.0563 13.1807 71.6174 12.1408C72.0166 11.4011 72.2626 11.1306 72.7767 10.8664C73.5246 10.4821 74.4365 10.433 75.2702 10.7322ZM113.102 10.8089C113.912 11.2124 114.488 12.0549 114.821 13.3226C115.233 14.8875 115.407 18.2929 115.225 21.2221C115.013 24.6287 114.348 26.3216 112.981 26.9394C112.622 27.1017 112.472 27.1271 111.872 27.1271C111.229 27.1271 111.14 27.1093 110.671 26.8867C108.971 26.0798 108.429 24.3881 108.324 19.5701C108.215 14.5659 108.841 11.8291 110.298 10.9406C110.792 10.6394 111.112 10.572 111.946 10.594C112.617 10.6118 112.761 10.6385 113.102 10.8089ZM36.2107 16.9961C36.4635 17.2601 39.3428 23.4097 39.2895 23.5718C39.218 23.7889 38.1693 24.6052 37.6108 24.8785C36.9098 25.2215 36.4188 25.3327 35.6007 25.3337C34.362 25.3351 33.5764 25.0016 32.6162 24.0667C31.5851 23.0628 31.1553 22.2157 31.101 21.0807C31.0606 20.2347 31.1523 19.7592 31.485 19.0899C32.1301 17.792 33.8107 16.852 35.518 16.834C35.9892 16.8291 36.0684 16.8476 36.2107 16.9961Z" fill="#161616"/>
</g>
<defs>
<clipPath id="clip0_4_2212">
<rect width="120" height="28" fill="white"/>
</clipPath>
</defs>
</svg>
