<svg width="16" height="16" viewBox="0 0 16 16" fill="none" xmlns="http://www.w3.org/2000/svg">
<path d="M12.8539 3.85249L3.8539 12.8525C3.76008 12.9463 3.63283 12.999 3.50015 12.999C3.36746 12.999 3.24022 12.9463 3.1464 12.8525C3.05258 12.7587 2.99987 12.6314 2.99987 12.4987C2.99987 12.3661 3.05258 12.2388 3.1464 12.145L12.1464 3.14499C12.2401 3.05116 12.3673 2.99842 12.4999 2.99837C12.6325 2.99831 12.7598 3.05094 12.8536 3.14467C12.9474 3.23841 13.0001 3.36558 13.0002 3.4982C13.0003 3.63083 12.9476 3.75804 12.8539 3.85186V3.85249ZM3.1589 6.33999C2.73695 5.91796 2.49994 5.3456 2.5 4.74883C2.50006 4.15205 2.73718 3.57974 3.15921 3.1578C3.58123 2.73585 4.15359 2.49884 4.75037 2.4989C5.34714 2.49896 5.91945 2.73608 6.3414 3.15811C6.76334 3.58014 7.00035 4.15249 7.00029 4.74927C7.00023 5.34604 6.76311 5.91835 6.34108 6.3403C5.91906 6.76224 5.3467 6.99925 4.74993 6.99919C4.15315 6.99914 3.58084 6.76201 3.1589 6.33999ZM3.50015 4.74999C3.50031 4.95552 3.55115 5.15783 3.64816 5.33903C3.74518 5.52022 3.88537 5.6747 4.05634 5.78877C4.2273 5.90285 4.42375 5.97302 4.62831 5.99305C4.83286 6.01308 5.03919 5.98237 5.22904 5.90363C5.41889 5.82488 5.58639 5.70055 5.71672 5.54162C5.84704 5.38269 5.93617 5.19408 5.9762 4.99249C6.01624 4.79089 6.00595 4.58254 5.94624 4.38587C5.88653 4.1892 5.77925 4.0103 5.6339 3.86499C5.45901 3.69015 5.23619 3.57111 4.99363 3.52294C4.75107 3.47478 4.49968 3.49963 4.27125 3.59438C4.04282 3.68912 3.84763 3.84949 3.71037 4.05519C3.57311 4.2609 3.49995 4.50269 3.50015 4.74999ZM13.5001 11.25C13.5 11.7705 13.3194 12.2749 12.9891 12.6772C12.6588 13.0795 12.1992 13.3549 11.6886 13.4563C11.1781 13.5578 10.6481 13.479 10.1891 13.2336C9.73007 12.9881 9.37036 12.5911 9.17125 12.1101C8.97214 11.6291 8.94595 11.094 9.09715 10.5959C9.24835 10.0978 9.56758 9.66755 10.0005 9.37843C10.4333 9.08931 10.953 8.95923 11.4711 9.01034C11.9891 9.06145 12.4734 9.2906 12.8414 9.65873C13.051 9.86722 13.2171 10.1152 13.3302 10.3884C13.4433 10.6615 13.501 10.9544 13.5001 11.25ZM12.5001 11.25C12.5002 10.9608 12.4 10.6805 12.2166 10.4569C12.0332 10.2333 11.7779 10.0803 11.4943 10.0238C11.2106 9.96731 10.9162 10.0109 10.6611 10.1472C10.406 10.2835 10.2061 10.504 10.0954 10.7712C9.98466 11.0383 9.97001 11.3356 10.0539 11.6124C10.1378 11.8891 10.3151 12.1282 10.5555 12.2889C10.7959 12.4496 11.0847 12.522 11.3725 12.4937C11.6603 12.4654 11.9294 12.3382 12.1339 12.1337C12.2503 12.018 12.3427 11.8802 12.4055 11.7285C12.4684 11.5768 12.5006 11.4142 12.5001 11.25Z" fill="white"/>
</svg>
